<svg width="40" height="40" viewBox="0 0 40 40" fill="none" xmlns="http://www.w3.org/2000/svg">
<g clip-path="url(#clip0_490_291)">
<path d="M1.25 0.5C1.44891 0.5 1.63962 0.579074 1.78027 0.719727C1.92093 0.860379 2 1.05109 2 1.25V38.75C2 38.9489 1.92093 39.1396 1.78027 39.2803C1.63962 39.4209 1.44891 39.5 1.25 39.5C1.05109 39.5 0.860378 39.4209 0.719727 39.2803C0.579075 39.1396 0.5 38.9489 0.5 38.75V1.25C0.5 1.05109 0.579074 0.860379 0.719727 0.719727C0.825103 0.61435 0.958554 0.543524 1.10254 0.514648L1.25 0.5ZM6.25 0.5H8.75C8.94891 0.5 9.13962 0.579074 9.28027 0.719727C9.42093 0.860379 9.5 1.05109 9.5 1.25V38.75C9.5 38.9489 9.42093 39.1396 9.28027 39.2803C9.13962 39.4209 8.94891 39.5 8.75 39.5H6.25C6.05109 39.5 5.86038 39.4209 5.71973 39.2803C5.57907 39.1396 5.5 38.9489 5.5 38.75V1.25C5.5 1.05109 5.57907 0.860379 5.71973 0.719727C5.86038 0.579074 6.05109 0.5 6.25 0.5ZM13.75 0.5C13.9489 0.5 14.1396 0.579074 14.2803 0.719727C14.4209 0.860379 14.5 1.05109 14.5 1.25V38.75C14.5 38.9489 14.4209 39.1396 14.2803 39.2803C14.1396 39.4209 13.9489 39.5 13.75 39.5C13.5511 39.5 13.3604 39.4209 13.2197 39.2803C13.0791 39.1396 13 38.9489 13 38.75V1.25C13 1.05109 13.0791 0.860379 13.2197 0.719727C13.3604 0.579074 13.5511 0.5 13.75 0.5ZM23.75 0.5H31.25C31.4489 0.5 31.6396 0.579075 31.7803 0.719727C31.9209 0.860378 32 1.05109 32 1.25V38.75C32 38.9489 31.9209 39.1396 31.7803 39.2803C31.6396 39.4209 31.4489 39.5 31.25 39.5H23.75C23.5511 39.5 23.3604 39.4209 23.2197 39.2803C23.0791 39.1396 23 38.9489 23 38.75V1.25C23 1.05109 23.0791 0.860378 23.2197 0.719727C23.3604 0.579075 23.5511 0.5 23.75 0.5ZM38.75 0.5C38.9489 0.5 39.1396 0.579075 39.2803 0.719727C39.4209 0.860378 39.5 1.05109 39.5 1.25V38.75C39.5 38.9489 39.4209 39.1396 39.2803 39.2803C39.1396 39.4209 38.9489 39.5 38.75 39.5C38.5511 39.5 38.3604 39.4209 38.2197 39.2803C38.0791 39.1396 38 38.9489 38 38.75V1.25C38 1.05109 38.0791 0.860378 38.2197 0.719727C38.3604 0.579075 38.5511 0.5 38.75 0.5Z" fill="#323232" stroke="black"/>
</g>
<defs>
<clipPath id="clip0_490_291">
<rect width="40" height="40" fill="white"/>
</clipPath>
</defs>
</svg>
