<svg width="100" height="32" viewBox="0 0 100 32" fill="none" xmlns="http://www.w3.org/2000/svg">
<g clip-path="url(#clip0_490_318)">
<path d="M86.9955 3.23654C87.0638 3.08521 87.1711 2.95417 87.3065 2.85642C87.442 2.75867 87.6011 2.69762 87.7678 2.67934C91.7008 1.79215 95.6337 0.903163 99.5666 0.0123658C99.667 -0.0103626 99.7719 -0.00282818 99.8679 0.034001C100.01 0.0935077 100.038 0.261212 99.9501 0.418093C99.7145 0.856279 99.479 1.29446 99.2434 1.72724L94.9052 9.74442C94.8276 9.93385 94.6837 10.0894 94.4997 10.1828C94.3157 10.2761 94.1038 10.301 93.9028 10.2529C93.7468 10.212 93.6024 10.1361 93.481 10.0311C92.4512 9.05739 91.4269 8.07822 90.3861 7.08284C93.3166 4.93519 96.2454 2.79114 99.1722 0.650706C99.1665 0.644742 99.1626 0.637206 99.1613 0.629071C95.9295 2.4846 92.6959 4.33832 89.4604 6.19024C88.699 5.45993 87.9376 4.74045 87.1927 4.00473C87.1041 3.8878 87.0339 3.7583 86.9845 3.62064C86.9703 3.58375 86.9593 3.54575 86.9517 3.50703C86.9681 3.42588 86.9845 3.33392 86.9955 3.23654Z" fill="#ED1C24"/>
<path d="M89.8056 10.0473C89.7127 10.0993 89.6076 10.1261 89.5009 10.125C89.3942 10.124 89.2896 10.0951 89.1979 10.0412C89.1061 9.98742 89.0304 9.91059 88.9784 9.81854C88.9264 9.72649 88.8999 9.62249 88.9018 9.5171C88.8579 8.6786 88.8306 7.8401 88.7922 7.00159C88.7867 6.91504 88.7867 6.82849 88.7812 6.70947C89.6851 7.5588 90.567 8.39189 91.4653 9.24121C91.3831 9.28449 91.3229 9.32777 91.2626 9.35482" fill="#ED1C24"/>
<path d="M55.0829 30.9179V14.9538C55.0494 14.4421 55.1253 13.9292 55.3055 13.4483C55.4857 12.9674 55.7664 12.5293 56.1291 12.1624C56.9239 11.4745 57.9608 11.1228 59.0158 11.1833H63.754C64.6233 11.1278 65.4881 11.3456 66.2244 11.8054C66.7019 12.1419 67.0881 12.5894 67.3489 13.1083C67.6098 13.6273 67.7371 14.2016 67.7198 14.7807V21.9269C67.7662 22.9282 67.4277 23.9099 66.7721 24.6751C66.4217 25.1049 65.979 25.4526 65.4761 25.693C64.9731 25.9335 64.4223 26.0606 63.8635 26.0654H57.5862V30.9125H55.0829V30.9179ZM57.6081 22.1217C57.6152 22.5141 57.7694 22.89 58.0408 23.1766C58.2904 23.4199 58.6174 23.5709 58.9665 23.604H63.7978C63.8574 23.6061 63.9169 23.5969 63.9731 23.5769C64.2759 23.5367 64.5575 23.4014 64.7765 23.191C64.9955 22.9806 65.1401 22.7062 65.1891 22.4084C65.2107 22.3144 65.2199 22.218 65.2165 22.1217V14.8132C65.2145 14.5176 65.1187 14.23 64.9426 13.9909C64.7087 13.7998 64.4229 13.6813 64.121 13.6501H59.3774C58.1832 13.6501 57.5862 14.1532 57.5862 15.1594V21.8404C57.5771 21.9347 57.5845 22.0299 57.6081 22.1217Z" fill="#ED1C24"/>
<path d="M68.9195 22.068V20.2827C68.8622 19.1382 69.1749 18.0053 69.8124 17.0478C70.1487 16.5892 70.5964 16.2216 71.1142 15.9786C71.632 15.7357 72.2034 15.6253 72.7758 15.6575H78.9983V14.6512C78.9992 14.5209 78.974 14.3917 78.9242 14.271C78.8744 14.1503 78.8009 14.0406 78.708 13.948C78.6256 13.854 78.5239 13.7784 78.4096 13.7261C78.2953 13.6739 78.1711 13.6463 78.0452 13.645H68.914V11.1782H77.8426C79.8145 11.1782 81.0105 12.0961 81.4304 13.9318C81.462 14.1577 81.4803 14.3853 81.4852 14.6134V22.2681C81.489 22.9396 81.299 23.5982 80.9374 24.1669C80.1322 25.4328 79.0896 26.0657 77.8097 26.0657H72.7867C71.9947 26.0509 71.2293 25.7812 70.6066 25.2975C69.9473 24.8484 69.4382 24.2156 69.1441 23.4799C68.9877 23.0255 68.9118 22.5478 68.9195 22.068ZM72.0856 23.3717C72.5351 23.5521 73.0201 23.6298 73.5043 23.5989H76.9169C78.3027 23.5989 78.9965 23.1066 78.9983 22.122V19.7093C78.9983 18.7626 78.4104 18.2325 77.2346 18.1189H73.214C72.0199 18.2487 71.4228 18.7789 71.4228 19.7093V22.122C71.3961 22.3717 71.4448 22.6235 71.5628 22.8459C71.6807 23.0682 71.8626 23.2512 72.0856 23.3717Z" fill="#ED1C24"/>
<path d="M82.7066 30.9183V28.4514H91.4325C92.2596 28.3216 92.6704 27.7915 92.6704 26.861V26.0658H86.3657C85.882 26.0722 85.4019 25.9826 84.9539 25.8023C84.5059 25.6219 84.0992 25.3545 83.7579 25.0159C83.4166 24.6774 83.1477 24.2745 82.9671 23.8313C82.7865 23.3881 82.6979 22.9135 82.7066 22.4358V11.1783H85.2044V21.7542C85.2044 22.9822 85.8033 23.5971 87.0011 23.5989H90.934C92.0898 23.5989 92.6686 23.0688 92.6704 22.0085V11.1729L95.1792 11.1783L95.1682 26.7149C95.2332 27.8107 94.886 28.8915 94.1932 29.7498C93.8109 30.146 93.3458 30.4552 92.8303 30.6561C92.3148 30.8569 91.7612 30.9445 91.2079 30.9128H82.7066V30.9183Z" fill="#ED1C24"/>
<path fill-rule="evenodd" clip-rule="evenodd" d="M0 11.1997H8.84636V13.0877H7.35645C7.12563 13.0868 6.90385 13.1763 6.73962 13.3364C6.57538 13.4966 6.48205 13.7145 6.48003 13.9424V23.285C6.48205 23.5129 6.57538 23.7308 6.73962 23.891C6.90385 24.0511 7.12563 24.1406 7.35645 24.1397H8.84636V26.0331H0V24.1397H1.70902C1.93924 24.1403 2.16027 24.0506 2.32357 23.8903C2.48688 23.7301 2.57909 23.5123 2.57996 23.285V13.9424C2.57823 13.7153 2.48574 13.4981 2.32262 13.338C2.15951 13.1779 1.93897 13.088 1.70902 13.0877H0V11.1997Z" fill="#ED1C24"/>
<path fill-rule="evenodd" clip-rule="evenodd" d="M10.3472 11.1997H18.1692L20.1631 15.7493L22.1405 20.2988L24.1179 15.7493L26.1008 11.1997H33.5778V13.0877H31.9071C31.6751 13.0878 31.4525 13.1781 31.2875 13.3391C31.1224 13.5001 31.0282 13.7188 31.0252 13.9478V23.3553C31.0259 23.469 31.0493 23.5814 31.094 23.6861C31.1387 23.7909 31.2039 23.8859 31.2858 23.9658C31.3676 24.0456 31.4647 24.1088 31.5713 24.1516C31.6779 24.1945 31.792 24.2162 31.9071 24.2155H33.5778V26.0331H24.6383L24.6273 24.1884H25.8598C25.8598 24.1884 26.9553 24.3561 27.021 23.3228L27.0649 14.6295L22.1076 26.0223V26.0385H20.3219V26.0223L15.3647 14.6295L15.4085 23.3228C15.4742 24.3561 16.5697 24.1884 16.5697 24.1884H17.8022L17.7913 26.0331H10.3472V24.2155H12.0124C12.2439 24.2155 12.466 24.125 12.6302 23.9639C12.7944 23.8027 12.8873 23.5839 12.8888 23.3553V13.9478C12.8873 13.7192 12.7944 13.5004 12.6302 13.3393C12.466 13.1781 12.2439 13.0877 12.0124 13.0877H10.3472V11.1997Z" fill="#ED1C24"/>
<path fill-rule="evenodd" clip-rule="evenodd" d="M51.3965 26.0332H35.1006V24.2047H36.7493C36.9808 24.2047 37.2029 24.1143 37.3671 23.9531C37.5313 23.792 37.6243 23.5732 37.6258 23.3446V13.9371C37.6243 13.7085 37.5313 13.4897 37.3671 13.3286C37.2029 13.1674 36.9808 13.077 36.7493 13.077H35.1006V11.1836H51.3965V16.999H49.2109C49.1418 16.0354 48.941 15.0855 48.6139 14.1752C48.1318 13.077 45.9463 13.1581 45.9463 13.1581H41.5751L41.5477 17.4102C44.4125 17.4751 45.1794 17.6211 44.9822 14.9217L47.1459 14.9109L47.1514 21.9273H44.9767C44.9767 21.9273 44.9767 21.5486 44.9384 20.353C44.9 19.0601 42.8514 19.3522 41.5642 19.3847V24.0803L46.2804 24.0966C48.1318 23.9721 48.6632 23.0633 48.959 22.1761C49.1522 21.3574 49.235 20.517 49.2055 19.6768L51.3856 19.6822V26.0332H51.3965Z" fill="#ED1C24"/>
</g>
<defs>
<clipPath id="clip0_490_318">
<rect width="100" height="32" fill="white"/>
</clipPath>
</defs>
</svg>
