<svg width="40" height="40" viewBox="0 0 40 40" fill="none" xmlns="http://www.w3.org/2000/svg">
<g clip-path="url(#clip0_480_35)">
<path fill-rule="evenodd" clip-rule="evenodd" d="M19.752 0C8.79801 0 0 8.86929 0 19.917C0 28.1171 4.81401 34.9788 11.786 38.1592C11.786 34.4242 11.76 34.9055 14.606 22.7607C13.042 19.6045 14.258 14.3936 17.76 14.3936C22.62 14.3936 19.318 21.5991 18.756 24.4346C18.258 26.6107 19.918 28.2852 21.91 28.2852C25.728 28.2852 28.216 23.4304 28.216 17.7412C28.216 13.3891 25.23 10.209 20.084 10.209C10.934 10.209 8.61401 20.3991 11.786 23.5977C12.584 24.8057 11.786 24.8622 11.786 26.4434C11.232 28.1152 6.806 25.6851 6.806 19.415C6.806 13.7238 11.454 7.03027 20.914 7.03027C28.382 7.03027 33.362 12.5525 33.362 18.4111C33.362 26.2764 29.046 31.9678 22.74 31.9678C20.582 31.9678 18.59 30.7952 17.926 29.4561C16.72 34.147 16.476 36.5252 14.606 39.1631C16.432 39.6652 18.258 40 20.25 40C31.204 40 40 31.1306 40 20.085C39.504 8.86988 30.706 0 19.752 0Z"/>
</g>
<defs>
<clipPath id="clip0_480_35">
<rect width="40" height="40" fill="white"/>
</clipPath>
</defs>
</svg>
